<svg width="364" height="72" viewBox="0 0 364 72" fill="none" xmlns="http://www.w3.org/2000/svg">
<path d="M27.216 19.304V25.88H18.288V53H10.08V25.88H1.152V19.304H27.216ZM29.7034 39.56C29.7034 36.808 30.2154 34.392 31.2394 32.312C32.2954 30.232 33.7194 28.632 35.5114 27.512C37.3034 26.392 39.3034 25.832 41.5114 25.832C43.3994 25.832 45.0474 26.216 46.4554 26.984C47.8954 27.752 48.9994 28.76 49.7674 30.008V26.216H57.9754V53H49.7674V49.208C48.9674 50.456 47.8474 51.464 46.4074 52.232C44.9994 53 43.3514 53.384 41.4634 53.384C39.2874 53.384 37.3034 52.824 35.5114 51.704C33.7194 50.552 32.2954 48.936 31.2394 46.856C30.2154 44.744 29.7034 42.312 29.7034 39.56ZM49.7674 39.608C49.7674 37.56 49.1914 35.944 48.0394 34.76C46.9194 33.576 45.5434 32.984 43.9114 32.984C42.2794 32.984 40.8874 33.576 39.7354 34.76C38.6154 35.912 38.0554 37.512 38.0554 39.56C38.0554 41.608 38.6154 43.24 39.7354 44.456C40.8874 45.64 42.2794 46.232 43.9114 46.232C45.5434 46.232 46.9194 45.64 48.0394 44.456C49.1914 43.272 49.7674 41.656 49.7674 39.608ZM74.8095 53.384C72.4735 53.384 70.3935 52.984 68.5695 52.184C66.7455 51.384 65.3055 50.296 64.2495 48.92C63.1935 47.512 62.6015 45.944 62.4735 44.216H70.5855C70.6815 45.144 71.1135 45.896 71.8815 46.472C72.6495 47.048 73.5935 47.336 74.7135 47.336C75.7375 47.336 76.5215 47.144 77.0655 46.76C77.6415 46.344 77.9295 45.816 77.9295 45.176C77.9295 44.408 77.5295 43.848 76.7295 43.496C75.9295 43.112 74.6335 42.696 72.8415 42.248C70.9215 41.8 69.3215 41.336 68.0415 40.856C66.7615 40.344 65.6575 39.56 64.7295 38.504C63.8015 37.416 63.3375 35.96 63.3375 34.136C63.3375 32.6 63.7535 31.208 64.5855 29.96C65.4495 28.68 66.6975 27.672 68.3295 26.936C69.9935 26.2 71.9615 25.832 74.2335 25.832C77.5935 25.832 80.2335 26.664 82.1535 28.328C84.1055 29.992 85.2255 32.2 85.5135 34.952H77.9295C77.8015 34.024 77.3855 33.288 76.6815 32.744C76.0095 32.2 75.1135 31.928 73.9935 31.928C73.0335 31.928 72.2975 32.12 71.7855 32.504C71.2735 32.856 71.0175 33.352 71.0175 33.992C71.0175 34.76 71.4175 35.336 72.2175 35.72C73.0495 36.104 74.3295 36.488 76.0575 36.872C78.0415 37.384 79.6575 37.896 80.9055 38.408C82.1535 38.888 83.2415 39.688 84.1695 40.808C85.1295 41.896 85.6255 43.368 85.6575 45.224C85.6575 46.792 85.2095 48.2 84.3135 49.448C83.4495 50.664 82.1855 51.624 80.5215 52.328C78.8895 53.032 76.9855 53.384 74.8095 53.384ZM107.047 53L98.8871 41.768V53H90.6791V17.48H98.8871V37.112L106.999 26.216H117.127L105.991 39.656L117.223 53H107.047ZM168.683 19.304V53H160.475V32.792L152.939 53H146.315L138.731 32.744V53H130.523V19.304H140.219L149.675 42.632L159.035 19.304H168.683ZM199.833 39.176C199.833 39.944 199.785 40.744 199.689 41.576H181.113C181.241 43.24 181.769 44.52 182.697 45.416C183.657 46.28 184.825 46.712 186.201 46.712C188.249 46.712 189.673 45.848 190.473 44.12H199.209C198.761 45.88 197.945 47.464 196.761 48.872C195.609 50.28 194.153 51.384 192.393 52.184C190.633 52.984 188.665 53.384 186.489 53.384C183.865 53.384 181.529 52.824 179.481 51.704C177.433 50.584 175.833 48.984 174.681 46.904C173.529 44.824 172.953 42.392 172.953 39.608C172.953 36.824 173.513 34.392 174.633 32.312C175.785 30.232 177.385 28.632 179.433 27.512C181.481 26.392 183.833 25.832 186.489 25.832C189.081 25.832 191.385 26.376 193.401 27.464C195.417 28.552 196.985 30.104 198.105 32.12C199.257 34.136 199.833 36.488 199.833 39.176ZM191.433 37.016C191.433 35.608 190.953 34.488 189.993 33.656C189.033 32.824 187.833 32.408 186.393 32.408C185.017 32.408 183.849 32.808 182.889 33.608C181.961 34.408 181.385 35.544 181.161 37.016H191.433ZM238.34 25.928C241.668 25.928 244.308 26.936 246.26 28.952C248.244 30.968 249.236 33.768 249.236 37.352V53H241.076V38.456C241.076 36.728 240.612 35.4 239.684 34.472C238.788 33.512 237.54 33.032 235.94 33.032C234.34 33.032 233.076 33.512 232.148 34.472C231.252 35.4 230.804 36.728 230.804 38.456V53H222.644V38.456C222.644 36.728 222.18 35.4 221.252 34.472C220.356 33.512 219.108 33.032 217.508 33.032C215.908 33.032 214.644 33.512 213.716 34.472C212.82 35.4 212.372 36.728 212.372 38.456V53H204.164V26.216H212.372V29.576C213.204 28.456 214.292 27.576 215.636 26.936C216.98 26.264 218.5 25.928 220.196 25.928C222.212 25.928 224.004 26.36 225.572 27.224C227.172 28.088 228.42 29.32 229.316 30.92C230.244 29.448 231.508 28.248 233.108 27.32C234.708 26.392 236.452 25.928 238.34 25.928ZM280.224 39.176C280.224 39.944 280.176 40.744 280.08 41.576H261.504C261.632 43.24 262.16 44.52 263.088 45.416C264.048 46.28 265.216 46.712 266.592 46.712C268.64 46.712 270.064 45.848 270.864 44.12H279.6C279.152 45.88 278.336 47.464 277.152 48.872C276 50.28 274.544 51.384 272.784 52.184C271.024 52.984 269.056 53.384 266.88 53.384C264.256 53.384 261.92 52.824 259.872 51.704C257.824 50.584 256.224 48.984 255.072 46.904C253.92 44.824 253.344 42.392 253.344 39.608C253.344 36.824 253.904 34.392 255.024 32.312C256.176 30.232 257.776 28.632 259.824 27.512C261.872 26.392 264.224 25.832 266.88 25.832C269.472 25.832 271.776 26.376 273.792 27.464C275.808 28.552 277.376 30.104 278.496 32.12C279.648 34.136 280.224 36.488 280.224 39.176ZM271.824 37.016C271.824 35.608 271.344 34.488 270.384 33.656C269.424 32.824 268.224 32.408 266.784 32.408C265.408 32.408 264.24 32.808 263.28 33.608C262.352 34.408 261.776 35.544 261.552 37.016H271.824ZM300.874 25.928C304.01 25.928 306.506 26.952 308.362 29C310.25 31.016 311.194 33.8 311.194 37.352V53H303.034V38.456C303.034 36.664 302.57 35.272 301.642 34.28C300.714 33.288 299.466 32.792 297.898 32.792C296.33 32.792 295.082 33.288 294.154 34.28C293.226 35.272 292.762 36.664 292.762 38.456V53H284.554V26.216H292.762V29.768C293.594 28.584 294.714 27.656 296.122 26.984C297.53 26.28 299.114 25.928 300.874 25.928Z" fill="#334739"/>
<path d="M331.826 46.04V53H327.65C324.674 53 322.354 52.28 320.69 50.84C319.026 49.368 318.194 46.984 318.194 43.688V33.032H314.93V26.216H318.194V19.688H326.402V26.216H331.778V33.032H326.402V43.784C326.402 44.584 326.594 45.16 326.978 45.512C327.362 45.864 328.002 46.04 328.898 46.04H331.826ZM348.59 53.384C345.966 53.384 343.598 52.824 341.486 51.704C339.406 50.584 337.758 48.984 336.542 46.904C335.358 44.824 334.766 42.392 334.766 39.608C334.766 36.856 335.374 34.44 336.59 32.36C337.806 30.248 339.47 28.632 341.582 27.512C343.694 26.392 346.062 25.832 348.686 25.832C351.31 25.832 353.678 26.392 355.79 27.512C357.902 28.632 359.566 30.248 360.782 32.36C361.998 34.44 362.606 36.856 362.606 39.608C362.606 42.36 361.982 44.792 360.734 46.904C359.518 48.984 357.838 50.584 355.694 51.704C353.582 52.824 351.214 53.384 348.59 53.384ZM348.59 46.28C350.158 46.28 351.486 45.704 352.574 44.552C353.694 43.4 354.254 41.752 354.254 39.608C354.254 37.464 353.71 35.816 352.622 34.664C351.566 33.512 350.254 32.936 348.686 32.936C347.086 32.936 345.758 33.512 344.702 34.664C343.646 35.784 343.118 37.432 343.118 39.608C343.118 41.752 343.63 43.4 344.654 44.552C345.71 45.704 347.022 46.28 348.59 46.28Z" fill="#29392E"/>
<rect width="9" height="46" transform="matrix(1.19249e-08 -1 -1 -1.19249e-08 360 15)" fill="#52AD9C"/>
</svg>
