<svg width="18" height="18" viewBox="0 0 18 18" fill="none" xmlns="http://www.w3.org/2000/svg">
<g clip-path="url(#clip0_3:40)">
<path d="M2.51996 4.68001H3.95996H15.48" stroke="white" stroke-width="2" stroke-linecap="round" stroke-linejoin="round"/>
<path d="M6.11996 4.68V3.24C6.11996 2.85809 6.27168 2.49182 6.54173 2.22177C6.81178 1.95172 7.17805 1.8 7.55996 1.8H10.44C10.8219 1.8 11.1881 1.95172 11.4582 2.22177C11.7282 2.49182 11.88 2.85809 11.88 3.24V4.68M14.04 4.68V14.76C14.04 15.1419 13.8882 15.5082 13.6182 15.7782C13.3481 16.0483 12.9819 16.2 12.6 16.2H5.39996C5.01805 16.2 4.65178 16.0483 4.38173 15.7782C4.11167 15.5082 3.95996 15.1419 3.95996 14.76V4.68H14.04Z" stroke="white" stroke-width="2" stroke-linecap="round" stroke-linejoin="round"/>
</g>
<defs>
<clipPath id="clip0_3:40">
<rect width="17.28" height="17.28" fill="white" transform="translate(0.359985 0.360001)"/>
</clipPath>
</defs>
</svg>
